<?xml version="1.0" encoding="UTF-8"?>
<svg version="1.1" xmlns="http://www.w3.org/2000/svg" width="512" height="512">
<path d="M0 0 C168.96 0 337.92 0 512 0 C512 168.96 512 337.92 512 512 C343.04 512 174.08 512 0 512 C0 343.04 0 174.08 0 0 Z " fill="#EDDCBA" transform="translate(0,0)"/>
<path d="M0 0 C16.17 0 32.34 0 49 0 C49 0.99 49 1.98 49 3 C48.07767578 3.16435547 48.07767578 3.16435547 47.13671875 3.33203125 C46.32847656 3.49058594 45.52023438 3.64914063 44.6875 3.8125 C43.48673828 4.03873047 43.48673828 4.03873047 42.26171875 4.26953125 C39.59144826 5.13195022 38.53239141 5.63446374 37 8 C36.4575134 14.15233653 38.02958184 18.96073042 40.04296875 24.6640625 C40.36328568 25.59833572 40.6836026 26.53260895 41.0136261 27.49519348 C42.06126698 30.54213486 43.12413401 33.58351482 44.1875 36.625 C44.91360751 38.72635137 45.63886078 40.82799809 46.36328125 42.92993164 C48.56020695 49.29199546 50.7783188 55.64654666 53 62 C53.67796819 63.94219525 54.35586764 65.8844145 55.03369141 67.82666016 C58.66542858 78.22617244 62.32014623 88.61741881 66 99 C70.57237874 86.63907782 75.13937006 74.27588462 79.56445312 61.86132812 C80.19660534 60.09684479 80.83478793 58.33451205 81.47851562 56.57421875 C82.4275033 53.97638877 83.35630577 51.37209691 84.28125 48.765625 C84.57068481 47.98640686 84.86011963 47.20718872 85.1583252 46.40435791 C89.07753956 35.16884799 83.34234609 23.37453687 78.65625 13.03515625 C75.34826072 7.25579126 71.49396432 5.4481893 65.1953125 3.55859375 C64.47085938 3.37425781 63.74640625 3.18992188 63 3 C63 2.01 63 1.02 63 0 C79.83 0 96.66 0 114 0 C114 0.99 114 1.98 114 3 C113.31292969 3.09796875 112.62585938 3.1959375 111.91796875 3.296875 C111.01691406 3.44640625 110.11585938 3.5959375 109.1875 3.75 C108.29417969 3.88921875 107.40085937 4.0284375 106.48046875 4.171875 C103.93619913 4.83804317 103.93619913 4.83804317 102.17578125 6.640625 C99.54799131 11.91366528 100.9957048 16.40250712 102.66015625 21.76953125 C103.44903152 24.12121496 104.25077868 26.46860389 105.0625 28.8125 C105.50137105 30.10316352 105.93966817 31.39402231 106.37744141 32.68505859 C111.03722106 46.35341781 115.9269404 59.94450761 120.82055664 73.53051758 C123.9860231 82.32195327 127.10258062 91.11586309 130 100 C131.11094624 96.74097711 132.2215548 93.48183925 133.33203125 90.22265625 C133.68005798 89.20122528 134.02808472 88.17979431 134.38665771 87.12741089 C136.30992636 81.48070566 138.23041755 75.83307404 140.14624023 70.18383789 C140.53218857 69.04578201 140.9181369 67.90772614 141.31578064 66.73518372 C142.09619878 64.43377307 142.87652275 62.13233049 143.65675354 59.83085632 C145.67168786 53.89290896 147.69899417 47.95966427 149.75227356 42.03486633 C150.7944208 39.02341644 151.82649652 36.00858213 152.85629272 32.9928894 C153.32211526 31.63713064 153.79273918 30.28301081 154.26846313 28.93069458 C156.77723164 21.79327231 158.87895827 15.60455863 158 8 C154.0854682 4.18094459 150.35615755 3.4284926 145 3 C145 2.01 145 1.02 145 0 C158.2 0 171.4 0 185 0 C185 0.99 185 1.98 185 3 C184.32453125 3.15855469 183.6490625 3.31710938 182.953125 3.48046875 C181.61507812 3.83044922 181.61507812 3.83044922 180.25 4.1875 C178.92742187 4.51814453 178.92742187 4.51814453 177.578125 4.85546875 C171.49766936 7.55482254 169.56778583 13.9223651 167.25204468 19.71246338 C165.2227559 25.04083648 163.33232199 30.40973018 161.48828125 35.8046875 C161.07805222 36.99522736 160.66782318 38.18576721 160.24516296 39.41238403 C159.15422639 42.58161886 158.06681481 45.75201591 156.98126221 48.9230957 C156.08343069 51.54358049 155.18243133 54.16297161 154.28149605 56.78239059 C149.06289851 71.95767648 143.86753439 87.14092453 138.8918457 102.39794922 C137.08110814 107.92189434 135.124361 113.33311214 132.92382812 118.71386719 C131.60153976 121.98604166 130.42461953 125.29691132 129.25 128.625 C128.82203125 129.83414063 128.3940625 131.04328125 127.953125 132.2890625 C127.63859375 133.18367187 127.3240625 134.07828125 127 135 C125.68 135 124.36 135 123 135 C115.9684946 116.73010563 109.45343128 98.28227323 102.94165039 79.82226562 C102.58042084 78.79837234 102.21919128 77.77447906 101.84701538 76.71955872 C101.16906306 74.79700575 100.49170696 72.87424239 99.81509399 70.95121765 C97.58397378 64.61917159 95.3048468 58.30557336 93 52 C88.19949395 64.06172141 83.74745698 76.21207718 79.5161438 88.48446655 C77.89304697 93.19139023 76.25895353 97.89449244 74.625 102.59765625 C74.30910416 103.50751785 73.99320831 104.41737946 73.66773987 105.35481262 C70.2181256 115.27551883 66.6483438 125.15063734 63 135 C61.68 135 60.36 135 59 135 C58.63773064 133.99049789 58.63773064 133.99049789 58.2681427 132.96060181 C54.08011814 121.29106061 49.89150149 109.6217357 45.6940918 97.95556641 C45.43291219 97.22962721 45.17173258 96.50368801 44.90263844 95.75575066 C43.83073029 92.77649817 42.7587958 89.79725518 41.6866703 86.8180809 C38.50241132 77.96936104 35.32446841 69.11844512 32.15993214 60.26265144 C30.23433804 54.87454667 28.30337166 49.48838859 26.36829662 44.10368156 C25.22982628 40.93482707 24.09430784 37.76498243 22.96572876 34.59259033 C21.70988387 31.06680806 20.44401989 27.54477716 19.17578125 24.0234375 C18.62718445 22.4714566 18.62718445 22.4714566 18.06750488 20.88812256 C14.82350834 11.4443303 14.82350834 11.4443303 7.5 5.1875 C3.79249537 3.92796313 3.79249537 3.92796313 0 3 C0 2.01 0 1.02 0 0 Z " fill="#030302" transform="translate(99,189)"/>
<path d="M0 0 C18.81 0 37.62 0 57 0 C57 0.99 57 1.98 57 3 C56.34773438 3.02578125 55.69546875 3.0515625 55.0234375 3.078125 C49.26945122 3.45154004 45.54168229 4.13957005 41 8 C38.89843458 11.15234813 38.74671547 11.90436547 38.72584534 15.50314331 C38.71587021 16.42559845 38.70589508 17.34805359 38.69561768 18.29846191 C38.69462067 19.81337219 38.69462067 19.81337219 38.69360352 21.35888672 C38.68528 22.4241861 38.67695648 23.48948547 38.66838074 24.58706665 C38.64423293 28.11797715 38.63550287 31.64870311 38.62890625 35.1796875 C38.61994385 37.62964942 38.61082208 40.07961077 38.60154724 42.52957153 C38.58504187 47.66930473 38.57735425 52.80897266 38.57446289 57.94873047 C38.56907636 64.53878953 38.53139082 71.12823641 38.48571873 77.71812248 C38.45599579 82.77957405 38.44874037 87.84087733 38.44773674 92.9024086 C38.4435253 95.33213226 38.4310543 97.76185601 38.41021919 100.19149399 C38.38340394 103.5888971 38.38810187 106.9848698 38.40063477 110.38232422 C38.38580048 111.38821594 38.37096619 112.39410767 38.35568237 113.43048096 C38.405311 118.1479903 38.43945188 120.27944165 41.41246033 124.10110474 C45.03624047 126.76045679 47.17878532 127.2005988 51.625 127.5625 C53.12933594 127.68818359 53.12933594 127.68818359 54.6640625 127.81640625 C55.43492187 127.87699219 56.20578125 127.93757813 57 128 C57 129.32 57 130.64 57 132 C38.19 132 19.38 132 0 132 C0 130.68 0 129.36 0 128 C0.89203125 127.90203125 1.7840625 127.8040625 2.703125 127.703125 C3.87359375 127.55359375 5.0440625 127.4040625 6.25 127.25 C7.99023438 127.04117188 7.99023438 127.04117188 9.765625 126.828125 C13.4150667 125.89372688 14.74951888 124.97920834 17 122 C17.91653765 119.13463701 18.12888382 116.52612468 18.14044189 113.52845764 C18.14615204 112.63828445 18.15186218 111.74811127 18.15774536 110.83096313 C18.15886322 109.86202118 18.15998108 108.89307922 18.16113281 107.89477539 C18.16609772 106.86834427 18.17106262 105.84191315 18.17617798 104.78437805 C18.19078379 101.38879731 18.19759817 97.99326325 18.203125 94.59765625 C18.20887672 92.23880512 18.21463445 89.87995401 18.22039795 87.52110291 C18.23090272 82.5756712 18.23674916 77.63025574 18.24023438 72.68481445 C18.24572512 66.34493573 18.26976792 60.00527112 18.29820633 53.66545963 C18.31681763 48.79360829 18.32203746 43.92180875 18.32357025 39.04992485 C18.32659952 36.71232365 18.33463724 34.37472342 18.34775543 32.03715706 C18.36478783 28.76947773 18.3629426 25.50232471 18.35644531 22.23461914 C18.3656601 21.26770142 18.37487488 20.30078369 18.3843689 19.30456543 C18.35382109 14.40633753 18.27528793 10.92948709 15 7 C10.24006368 3.82670912 5.56655668 3.35873365 0 3 C0 2.01 0 1.02 0 0 Z " fill="#030302" transform="translate(290,189)"/>
<path d="M0 0 C18.48 0 36.96 0 56 0 C56 0.99 56 1.98 56 3 C54.78763672 3.12955078 54.78763672 3.12955078 53.55078125 3.26171875 C46.77207601 4.12347407 46.77207601 4.12347407 40.8125 7.25 C37.19974548 12.73142065 37.85150763 19.29005825 37.85473633 25.64208984 C37.85137772 26.59571915 37.8480191 27.54934845 37.84455872 28.53187561 C37.83508323 31.6749096 37.83310736 34.81789013 37.83203125 37.9609375 C37.82881649 40.15280173 37.82545225 42.34466575 37.82194519 44.53652954 C37.81596256 49.12787371 37.81410442 53.71919908 37.81469727 58.31054688 C37.81479888 64.18369129 37.80114355 70.05671479 37.78392506 75.92983055 C37.77278829 80.4560908 37.77077857 84.98232196 37.77130699 89.50859451 C37.77012953 91.67345217 37.7657209 93.83831064 37.75797462 96.00315475 C37.74814028 99.03522893 37.75106636 102.06704242 37.75708008 105.09912109 C37.75146057 105.98665573 37.74584106 106.87419037 37.74005127 107.78862 C37.76952573 113.6584247 38.00215414 119.81249835 41.20703125 124.92578125 C43.92651078 126.55509905 46.56288087 126.7853213 49.6875 127.1875 C50.86699219 127.34605469 52.04648437 127.50460937 53.26171875 127.66796875 C54.16535156 127.77753906 55.06898438 127.88710938 56 128 C56 129.32 56 130.64 56 132 C37.52 132 19.04 132 0 132 C0 130.68 0 129.36 0 128 C0.89203125 127.91363281 1.7840625 127.82726562 2.703125 127.73828125 C3.87359375 127.59777344 5.0440625 127.45726562 6.25 127.3125 C7.41015625 127.18488281 8.5703125 127.05726563 9.765625 126.92578125 C13.93606109 125.73206947 14.80128586 124.73679116 17 121 C17.59049124 117.43619941 17.5463791 113.91205225 17.51757812 110.30639648 C17.5245874 109.22944519 17.53159668 108.1524939 17.53881836 107.04290771 C17.55641448 103.48537364 17.54476997 99.92863582 17.53125 96.37109375 C17.53394423 93.89917345 17.53782608 91.42725419 17.54284668 88.95533752 C17.54874378 83.77619328 17.54017077 78.59732505 17.52148438 73.41821289 C17.49868329 66.77434315 17.51182464 60.13111931 17.53577423 53.48727322 C17.55021599 48.38380551 17.54563377 43.28049141 17.53526306 38.17701912 C17.53259193 35.72695909 17.53587904 33.27688518 17.54518127 30.82684135 C17.55532099 27.40558702 17.53988095 23.98538479 17.51757812 20.56420898 C17.52567505 19.54851334 17.53377197 18.53281769 17.54211426 17.48634338 C17.55917241 12.07199025 17.55917241 12.07199025 15.08972168 7.41542053 C11.42381508 4.9324107 8.6887143 3.76665126 4.25 3.375 C3.45078125 3.30023438 2.6515625 3.22546875 1.828125 3.1484375 C1.22484375 3.09945312 0.6215625 3.05046875 0 3 C0 2.01 0 1.02 0 0 Z " fill="#050403" transform="translate(357,189)"/>
<path d="M0 0 C0.33 0 0.66 0 1 0 C1 13.53 1 27.06 1 41 C-12.53 41 -26.06 41 -40 41 C-36.77794772 39.38897386 -33.66489916 38.09649079 -30.3125 36.8125 C-17.71232801 31.5611525 -8.22889841 22.19948407 -2.96484375 9.59765625 C-1.78548854 6.42246916 -0.80417774 3.28981803 0 0 Z " fill="#000000" transform="translate(511,471)"/>
<path d="M0 0 C1.61102614 3.22205228 2.90350921 6.33510084 4.1875 9.6875 C9.4388475 22.28767199 18.80051593 31.77110159 31.40234375 37.03515625 C34.57753084 38.21451146 37.71018197 39.19582226 41 40 C41 40.33 41 40.66 41 41 C27.47 41 13.94 41 0 41 C0 27.47 0 13.94 0 0 Z " fill="#000000" transform="translate(0,471)"/>
<path d="M0 0 C13.53 0 27.06 0 41 0 C41 13.53 41 27.06 41 41 C39.38897386 37.77794772 38.09649079 34.66489916 36.8125 31.3125 C31.5611525 18.71232801 22.19948407 9.22889841 9.59765625 3.96484375 C6.42246916 2.78548854 3.28981803 1.80417774 0 1 C0 0.67 0 0.34 0 0 Z " fill="#000000" transform="translate(471,0)"/>
<path d="M0 0 C13.53 0 27.06 0 41 0 C37.77794772 1.61102614 34.66489916 2.90350921 31.3125 4.1875 C18.71232801 9.4388475 9.22889841 18.80051593 3.96484375 31.40234375 C2.78548854 34.57753084 1.80417774 37.71018197 1 41 C0.67 41 0.34 41 0 41 C0 27.47 0 13.94 0 0 Z " fill="#000000" transform="translate(0,0)"/>
</svg>
